<svg xmlns="http://www.w3.org/2000/svg" viewBox="0 0 32 32">
  <defs>
    <linearGradient id="g" x1="0%" y1="0%" x2="100%" y2="100%">
      <stop offset="0%" stop-color="#0EA5E9"/>
      <stop offset="100%" stop-color="#06B6D4"/>
    </linearGradient>
  </defs>
  <rect width="32" height="32" rx="7" fill="url(#g)"/>
  <g transform="translate(5,5) scale(0.917)">
    <path fill="white" d="M3 17c1.5 0 2.5-1 4-1s2.5 1 4 1 2.5-1 4-1 2.5 1 4 1v2c-1.5 0-2.5-1-4-1s-2.5 1-4 1-2.5-1-4-1-2.5 1-4 1v-2zm0-4c1.5 0 2.5-1 4-1s2.5 1 4 1 2.5-1 4-1 2.5 1 4 1v2c-1.5 0-2.5-1-4-1s-2.5 1-4 1-2.5-1-4-1-2.5 1-4 1v-2zM12 3c1.1 0 2 .9 2 2s-.9 2-2 2-2-.9-2-2 .9-2 2-2zm-5 5l3 3h-2v3h4v-3h-2l3-3"/>
  </g>
</svg>
